<?xml version="1.0" encoding="utf-8"?>
<svg viewBox="0 0 64 64" fill="none" xmlns="http://www.w3.org/2000/svg">
  <defs>
    <clipPath id="clip0_5866_752">
      <rect width="64" height="64" rx="16" fill="white"/>
    </clipPath>
  </defs>
  <g clip-path="url(#clip0_5866_752)" transform="matrix(1, 0, 0, 1, 0, -1.7763568394002505e-15)">
    <path d="M0 0H64V64H0V0Z" fill="#44A3DD"/>
    <path d="M12.5003 23H25.6761C26.6657 23 27.576 23.5414 28.0485 24.4109L39.7799 46H24.0819C23.0923 46 22.182 45.4586 21.7095 44.5891L11.1823 25.2162C10.7868 24.4883 11.0562 23.5776 11.7841 23.182C12.0039 23.0626 12.2501 23 12.5003 23Z" fill="#BEE5F7"/>
    <path d="M 51.591 25.644 C 51.841 25.644 52.087 25.7 52.307 25.805 C 53.013 26.145 53.288 26.913 52.943 27.547 L 52.909 27.606 L 42.382 44.751 C 41.924 45.496 41.057 45.969 40.105 45.998 L 40.009 46 L 24.556 46 L 24.082 46 L 23.986 45.998 C 23.488 45.983 23.014 45.846 22.609 45.613 C 22.812 45.716 23.041 45.783 23.286 45.802 C 23.312 45.804 23.522 45.821 23.756 45.766 C 23.855 45.743 24.219 45.667 24.606 45.347 C 24.721 45.252 24.883 45.046 25.09 44.731 L 36.043 26.893 C 36.5 26.148 37.367 25.675 38.32 25.646 L 38.415 25.644 L 51.591 25.644 Z" fill="white" style=""/>
    <path d="M 51.417 25.33 C 51.748 25.33 52.074 25.324 52.365 25.312 C 53.299 25.272 53.664 25.182 53.207 25.108 L 53.162 25.101 L 39.23 23.089 C 38.623 23 37.476 22.945 36.216 22.941 L 36.088 22.941 L 15.637 22.941 L 15.009 22.941 L 14.883 22.941 C 14.224 22.943 13.596 22.959 13.061 22.986 C 13.329 22.974 13.632 22.966 13.957 22.964 C 13.991 22.964 14.269 22.962 14.579 22.968 C 14.71 22.971 15.191 22.98 15.703 23.018 C 15.855 23.03 16.069 23.054 16.344 23.09 L 30.84 25.185 C 31.445 25.272 32.591 25.328 33.854 25.33 L 33.979 25.33 L 51.417 25.33 Z" fill="white" style=""/>
  </g>
</svg>